PathFileType	4	(X/Y/Z)	C:\Users\WrightLab\Desktop\Jo\P2_Trial15.trc
DataRate	CameraRate	NumFrames	NumMarkers	Units	OrigDataRate	OrigDataStartFrame	OrigNumFrames
100.00	100.00	       19	19	mm	100.00	1	       440
Frame#	Time	Headset_Front			Headset_Back			Headset_Left			Headset_Right			Left_Shoulder			Right_Shoulder			Sternum			C7			Left Elbow			Right Elbow			Left Wrist			Right Wrist			Left ASIS			Right ASIS			S2			Left Knee			Right Knee			Left Ankle			Right Ankle			
		X1	Y1	Z1	X2	Y2	Z2	X3	Y3	Z3	X4	Y4	Z4	X5	Y5	Z5	X6	Y6	Z6	X7	Y7	Z7	X8	Y8	Z8	X9	Y9	Z9	X10	Y10	Z10	X11	Y11	Z11	X12	Y12	Z12	X13	Y13	Z13	X14	Y14	Z14	X15	Y15	Z15	X16	Y16	Z16	X17	Y17	Z17	X18	Y18	Z18	X19	Y19	Z19	

1	0.000																									-72.16128	1048.71936	-1320.17212	-261.30429	899.08081	-1546.26672	-415.46265	987.27997	-1331.65820				-292.68619	1001.72607	-1289.23999							-102.52287	401.58279	-1394.26953				-63.61609	49.94672	-1458.19043				
2	0.010																									-77.06191	1047.78137	-1315.57581	-265.45203	897.77649	-1541.20044	-420.50558	987.02637	-1322.59814				-296.37366	1000.81030	-1284.86072							-103.54586	401.00418	-1392.52795				-65.17937	48.81990	-1456.17932				
3	0.020																									-80.93265	1046.45447	-1311.94165	-269.61295	896.50165	-1535.95935	-424.59171	984.37903	-1320.11267				-301.33234	998.17676	-1278.82019							-104.61478	401.24277	-1390.33740				-66.04761	48.00939	-1453.55042				
4	0.030																									-84.33902	1044.14563	-1307.76135	-273.83670	895.26471	-1530.58142	-429.71539	983.33710	-1316.24182				-306.95508	997.88019	-1274.34241							-107.56241	399.43277	-1385.55725				-67.49953	48.37882	-1453.04700				
5	0.040																									-90.00179	1043.30493	-1302.12781	-278.21106	894.02454	-1525.13599	-433.95782	979.29596	-1313.28687				-311.77026	995.83636	-1268.59814							-108.91084	399.61237	-1382.69568				-69.98519	45.90905	-1449.96948				
6	0.050																									-94.82695	1042.20764	-1296.70166	-282.83600	892.81097	-1519.70569	-439.70798	979.15613	-1309.27417				-317.65741	993.49194	-1263.68420							-110.04234	398.77325	-1380.13794				-72.16795	45.65560	-1447.23352				
7	0.060																									-99.17856	1040.75476	-1291.74573	-287.69867	891.52515	-1513.87183	-445.37589	977.38739	-1302.38403				-323.21149	992.72015	-1256.64075							-112.48401	397.40982	-1374.52393				-73.57262	45.29837	-1446.96790				
8	0.070																									-103.79508	1039.20044	-1288.50684	-292.95950	890.82202	-1509.13550	-451.52451	975.49957	-1299.74988				-329.41974	990.20538	-1252.58960							-114.04777	397.56546	-1371.95227				-74.70487	45.02366	-1446.25269				
9	0.080																									-108.33361	1037.88672	-1283.90552	-298.43564	889.72321	-1503.31787	-458.60959	975.89771	-1288.35291				-335.85458	988.87866	-1244.93311							-116.11163	396.86285	-1367.10522				-78.51817	45.53268	-1445.07202				
10	0.090																									-113.21628	1036.39038	-1277.67578	-304.31238	888.73932	-1497.42395	-465.52954	973.83051	-1284.47180				-342.63324	987.52277	-1239.29907							-119.17800	395.06070	-1361.56738				-79.60735	45.44183	-1444.18921				
11	0.100																									-119.00111	1035.68896	-1271.97009	-310.60577	887.91107	-1492.05835	-472.24377	973.54401	-1276.45374				-349.85464	985.65961	-1229.02808							-121.17607	395.02597	-1358.54395				-83.18446	44.78385	-1442.05750				
12	0.110																									-123.78209	1034.98608	-1265.93506	-317.38644	886.54797	-1485.71851	-478.93637	971.63861	-1271.33508				-356.26163	983.63605	-1227.59399							-125.43749	394.52383	-1352.62012				-85.74422	43.16060	-1439.94873				
13	0.120																									-128.50009	1033.27563	-1260.12866	-324.46069	885.74695	-1479.79797	-485.90408	970.26422	-1269.19775				-362.40652	981.44495	-1224.65332							-129.06705	393.83453	-1349.38794				-88.01605	43.86491	-1439.59045				
14	0.130																									-134.56702	1032.46094	-1254.41382	-331.96445	884.96075	-1473.96155	-493.26538	969.57629	-1258.99573				-370.11249	979.41852	-1217.24341							-134.19698	393.48807	-1344.60303				-91.78196	44.27731	-1438.54785				
15	0.140																									-139.79909	1030.60767	-1247.78125	-339.91861	884.22229	-1468.14478	-501.70602	968.65375	-1251.83997				-378.45905	979.20642	-1205.46509							-140.26793	391.88522	-1339.27979				-93.19024	45.57046	-1438.25122				
16	0.150																									-145.56351	1030.04614	-1243.16956	-348.28226	882.97455	-1461.51416	-508.95154	966.64044	-1249.84082				-385.44437	978.49622	-1195.77075							-146.75793	390.25409	-1334.09229				-95.96138	46.44562	-1438.52637				
17	0.160																									-151.00809	1028.79089	-1236.74207	-357.02063	882.08722	-1455.36560	-518.11926	967.00958	-1238.25940				-394.32260	975.95642	-1190.50171							-154.38112	390.01608	-1330.31592				-98.82921	47.01373	-1437.23755				
18	0.170																									-156.92491	1027.00208	-1229.75415	-365.87497	881.13873	-1448.46912	-525.51892	965.39227	-1233.96851				-402.40067	974.23944	-1182.21204							-162.81671	388.66055	-1323.83057				-101.09930	50.68183	-1437.43848	-144.49420	784.81329	-1203.14856	
19	0.180																									-163.66388	1026.41162	-1223.09448	-375.38242	880.37036	-1442.50513	-534.38879	964.12622	-1226.29077				-411.66571	973.70782	-1177.37549							-171.29948	388.18417	-1319.36011				-103.40928	52.36674	-1436.66968	-149.20093	783.34241	-1199.77380	
